<?xml version="1.0" encoding="iso-8859-1"?>
<!-- Generator: Adobe Illustrator 19.0.0, SVG Export Plug-In . SVG Version: 6.00 Build 0)  -->
<svg xmlns="http://www.w3.org/2000/svg" xmlns:xlink="http://www.w3.org/1999/xlink" version="1.1" id="Layer_1" x="0px" y="0px" viewBox="0 0 512.032 512.032" style="enable-background:new 0 0 512.032 512.032;" xml:space="preserve" width="512" height="512">
<linearGradient id="SVGID_1_" gradientUnits="userSpaceOnUse" x1="28.0042" y1="256.0161" x2="484.0281" y2="256.0161">
	<stop offset="0" style="stop-color:#00F2FE"/>
	<stop offset="0.0208" style="stop-color:#03EFFE"/>
	<stop offset="0.2931" style="stop-color:#24D2FE"/>
	<stop offset="0.5538" style="stop-color:#3CBDFE"/>
	<stop offset="0.7956" style="stop-color:#4AB0FE"/>
	<stop offset="1" style="stop-color:#4FACFE"/>
</linearGradient>
<path style="fill:url(#SVGID_1_);" d="M249.953,512.032c-0.127,0-0.252-0.001-0.38-0.001c-30.121-0.197-55.569-26.275-55.569-56.946  V227.287c0-21.624,12.265-40.767,32.008-49.959c19.697-9.169,42.18-6.349,58.843,7.339l180.441,133.838  c0.464,0.344,0.913,0.709,1.346,1.092c16.143,14.297,21.543,36.101,14.095,56.901c-7.931,22.151-27.949,37.018-50.998,37.875  c-0.242,0.009-0.484,0.014-0.727,0.014l-84.05,0.071l-51.448,74.105c-0.058,0.083-0.116,0.167-0.176,0.249  C282.44,504.009,267.444,512.031,249.953,512.032z M249.864,212.05c-3.239,0-5.845,1.018-6.969,1.541  c-2.673,1.244-8.891,5.07-8.891,13.696v227.798c0,9.641,8.359,16.898,15.833,16.946c3.143,0.042,6.604-0.46,10.915-6.419  l57.313-82.552c3.734-5.378,9.864-8.588,16.412-8.594l94.067-0.08c7.87-0.432,12.742-6.368,14.534-11.373  c1.299-3.626,1.884-8.769-2.46-13.011L260.585,216.468c-0.327-0.243-0.647-0.495-0.959-0.758  C256.276,212.892,252.808,212.05,249.864,212.05z M157.444,366.851c5.407-9.631,1.983-21.823-7.647-27.231  C99.345,311.291,68.004,257.792,68.004,200c0-88.225,71.775-160,160-160s160,71.775,160,160c0,11.046,8.954,20,20,20s20-8.954,20-20  c0-110.28-89.72-200-200-200s-200,89.72-200,200c0,72.234,39.164,139.099,102.208,174.498c3.097,1.738,6.458,2.564,9.773,2.564  C146.982,377.063,153.774,373.385,157.444,366.851z M157.434,272.495c9.064-6.313,11.295-18.778,4.982-27.842  c-9.429-13.538-14.412-29.324-14.412-45.653c0-44.112,35.888-80,80-80c29.368,0,55.355,15.22,69.517,40.712  c5.363,9.655,17.536,13.137,27.195,7.771c9.656-5.363,13.136-17.539,7.771-27.195c-10.214-18.389-25.088-33.769-43.012-44.478  C271.069,84.813,249.813,79,228.004,79c-66.168,0-120,53.832-120,120c0,24.543,7.465,48.234,21.588,68.513  c3.888,5.582,10.107,8.572,16.43,8.572C149.967,276.085,153.951,274.92,157.434,272.495z"/>















</svg>
